<?xml version="1.0" encoding="UTF-8"?>
<svg width="39px" height="64px" viewBox="0 0 39 64" version="1.1" xmlns="http://www.w3.org/2000/svg" xmlns:xlink="http://www.w3.org/1999/xlink">
    <!-- Generator: Sketch 47.1 (45422) - http://www.bohemiancoding.com/sketch -->
    <title>AccessIcon</title>
    <desc>Created with Sketch.</desc>
    <defs>
        <polygon id="path-1" points="0 0 0 63.3700435 38.4608571 63.3700435 38.4608571 0 1.54886025e-19 3.05842308e-14"></polygon>
    </defs>
    <g id="Page-1" stroke="none" stroke-width="1" fill="none" fill-rule="evenodd">
        <g id="Updated-status-download" transform="translate(-259.000000, -436.000000)">
            <g id="AccessIcon" transform="translate(259.000000, 436.000000)">
                <mask id="mask-2" fill="white">
                    <use xlink:href="#path-1"></use>
                </mask>
                <g id="Clip-2"></g>
                <path d="M27.7951429,4.49947826 C28.3208571,5.2053913 28.7808571,5.93426087 29.1751429,6.68034783 C29.5722857,7.43217391 29.9208571,8.22417391 30.2322857,9.06208696 C30.5351429,9.9 30.758,10.7809565 30.8865714,11.7106957 C31.0208571,12.6346957 31.0837143,13.5816522 31.0837143,14.5515652 C31.0837143,15.1713913 31.0408571,15.8084348 30.9522857,16.4713043 C30.8665714,17.1341739 30.758,17.7941739 30.6237143,18.4541739 C30.4922857,19.1170435 30.318,19.7569565 30.1008571,20.373913 C29.878,20.9908696 29.6408571,21.5647826 29.3751429,22.0927826 C29.0237143,21.8287826 28.6694286,21.6106957 28.3208571,21.4327826 C27.9665714,21.2577391 27.598,21.0798261 27.2008571,20.901913 C26.8037143,20.7297391 26.4294286,20.5518261 26.078,20.373913 C25.7265714,20.196 25.3351429,20.0668696 24.8922857,19.977913 C25.158,19.5388696 25.3551429,19.094087 25.4865714,18.6550435 C25.618,18.2131304 25.7522857,17.7712174 25.8837143,17.3293043 C26.0151429,16.8902609 26.1008571,16.4282609 26.1465714,15.9433043 C26.1894286,15.4583478 26.2122857,14.9963478 26.2122857,14.5515652 C26.2122857,13.8485217 26.1694286,13.1856522 26.078,12.5686957 C25.9922857,11.9517391 25.8351429,11.3347826 25.618,10.7149565 C25.4008571,10.1008696 25.158,9.52408696 24.8922857,8.99608696 C24.6322857,8.46808696 24.3237143,7.986 23.9722857,7.53834783 C23.7951429,7.27721739 23.558,6.99026087 23.2465714,6.68034783 C22.9408571,6.37043478 22.5894286,6.08634783 22.1951429,5.81947826 C21.8008571,5.55834783 21.3608571,5.3373913 20.878,5.1566087 C20.3922857,4.98443478 19.8437143,4.89547826 19.2322857,4.89547826 C18.2637143,4.89547826 17.3665714,5.1566087 16.5294286,5.69034783 C15.6951429,6.21834783 14.9694286,6.90130435 14.358,7.73921739 C13.7408571,8.58 13.238,9.59008696 12.8408571,10.7809565 C12.4465714,11.9718261 12.2494286,13.2286957 12.2494286,14.5515652 C12.2494286,14.9963478 12.2694286,15.4583478 12.3151429,15.9433043 C12.358,16.4282609 12.4465714,16.8902609 12.5808571,17.3293043 C12.7122857,17.7712174 12.8408571,18.2131304 12.9751429,18.6550435 C13.1037143,19.094087 13.3065714,19.5388696 13.5665714,19.977913 C13.1237143,20.0668696 12.7322857,20.196 12.378,20.373913 C12.0294286,20.5518261 11.678,20.7297391 11.3265714,20.901913 C10.9751429,21.0798261 10.6208571,21.2577391 10.2751429,21.4327826 C9.92085714,21.6106957 9.56942857,21.8287826 9.218,22.0927826 C8.86657143,21.5647826 8.58085714,20.9908696 8.36371429,20.373913 C8.14085714,19.7569565 7.96942857,19.1170435 7.838,18.4541739 C7.70657143,17.7941739 7.59228571,17.1341739 7.50657143,16.4713043 C7.42085714,15.8084348 7.37514286,15.1713913 7.37514286,14.5515652 C7.37514286,12.5227826 7.68085714,10.6288696 8.298,8.86408696 C8.91228571,7.09930435 9.76657143,5.57843478 10.8665714,4.30147826 C11.9637143,3.02165217 13.238,1.98573913 14.6837143,1.19086957 C16.1351429,0.396 17.6494286,0 19.2322857,0 C20.0208571,0 20.8122857,0.111913043 21.6037143,0.33 C22.3922857,0.553826087 23.158,0.860869565 23.9094286,1.25686957 C24.6522857,1.65286957 25.3551429,2.11486957 26.0151429,2.64573913 C26.6694286,3.1766087 27.2637143,3.79356522 27.7951429,4.49947826 M38.4608571,38.762087 L38.4608571,38.8969565 L38.4608571,39.0289565 L38.4608571,63.3714783 L33.5894286,63.3714783 L33.5894286,39.4249565 L33.5894286,39.0289565 C33.5008571,38.762087 33.3665714,38.3890435 33.1951429,37.904087 C33.0151429,37.4191304 32.7322857,36.8452174 32.338,36.1823478 C31.9437143,35.5223478 31.418,34.8594783 30.758,34.1966087 C30.1008571,33.5394783 29.2408571,32.9454783 28.1894286,32.4117391 L19.2322857,41.4106957 L10.2751429,32.4117391 C9.218,32.9454783 8.36371429,33.5394783 7.70657143,34.1966087 C7.04657143,34.8594783 6.52085714,35.5223478 6.12657143,36.1823478 C5.72657143,36.8452174 5.44371429,37.4191304 5.26657143,37.904087 C5.09228571,38.3890435 4.96085714,38.762087 4.87514286,39.0289565 L4.87514286,63.3714783 L-0.002,63.3714783 L-0.002,39.0289565 L-0.002,38.762087 C0.0865714286,38.0590435 0.280857143,37.2871304 0.592285714,36.4492174 C0.898,35.6113043 1.318,34.7504348 1.84371429,33.8666087 C2.37228571,32.9885217 3.02942857,32.1276522 3.818,31.2868696 C4.60942857,30.4518261 5.578,29.634 6.718,28.8391304 C6.98085714,28.664087 7.28657143,28.491913 7.638,28.3111304 C7.98942857,28.136087 8.318,27.9610435 8.62657143,27.7831304 C8.93228571,27.6052174 9.28371429,27.4531304 9.68085714,27.3211304 C10.0751429,27.1862609 10.4465714,27.0341739 10.8008571,26.8591304 L19.2322857,35.3243478 L27.5294286,26.8591304 C27.9665714,27.0341739 28.3637143,27.1862609 28.7151429,27.3211304 C29.0637143,27.4531304 29.4151429,27.6052174 29.7665714,27.7831304 C30.118,27.9610435 30.4465714,28.136087 30.758,28.3111304 C31.0637143,28.491913 31.3951429,28.664087 31.7465714,28.8391304 C32.8837143,29.547913 33.8551429,30.3427826 34.6408571,31.2208696 C35.4351429,32.1075652 36.1122857,32.9885217 36.6837143,33.8666087 C37.2551429,34.7504348 37.6722857,35.6113043 37.938,36.4492174 C38.2008571,37.2871304 38.3722857,38.0590435 38.4608571,38.762087" id="Fill-1" fill="#000000" mask="url(#mask-2)"></path>
            </g>
        </g>
    </g>
</svg>